PathFileType	4	(X/Y/Z)	TVC_36_BWA_02_walk_RCNL2025.trc
DataRate	CameraRate	NumFrames	NumMarkers	Units	OrigDataRate	OrigDataStartFrame	OrigNumFrames
100	100	10	27	mm	100	427	487
Frame#	Time	R_Shoulder			L_Shoulder			C7			J_Notch			R_Elbow			L_Elbow			R_Wrist			L_Wrist			R_Asis			L_Asis			R_Psis			L_Psis			Sacral			Thoracic			Sternum			R_Thigh_Lateral			R_Knee_Lateral			R_Shank_Lateral			R_Ankle_Lateral			R_Heel			R_Toe			L_Thigh_Lateral			L_Knee_Lateral			L_Shank_Lateral			L_Ankle_Lateral			L_Heel			L_Toe		
		X1	Y1	Z1	X2	Y2	Z2	X3	Y3	Z3	X4	Y4	Z4	X5	Y5	Z5	X6	Y6	Z6	X7	Y7	Z7	X8	Y8	Z8	X9	Y9	Z9	X10	Y10	Z10	X11	Y11	Z11	X12	Y12	Z12	X13	Y13	Z13	X14	Y14	Z14	X15	Y15	Z15	X16	Y16	Z16	X17	Y17	Z17	X18	Y18	Z18	X19	Y19	Z19	X20	Y20	Z20	X21	Y21	Z21	X22	Y22	Z22	X23	Y23	Z23	X24	Y24	Z24	X25	Y25	Z25	X26	Y26	Z26	X27	Y27	Z27
427	4.26000000	1268.494873	1404.603760	677.600037	1141.719727	1386.869873	355.301025	1170.544434	1447.367554	534.537720	1324.584717	1330.729858	482.777496	1251.206421	1153.616577	834.399292	1104.309937	1094.870972	255.379044	1386.634216	986.288605	901.836792	1286.808899	990.827484	311.037415	1312.889893	906.167358	610.997620	1200.599121	933.322815	377.463684	1122.856445	944.130432	612.197388	1084.605591	942.939148	537.518494	1103.731018	943.534790	574.857941	1123.724365	1171.287231	568.075500	1357.124390	1177.819336	454.925415	1281.951904	634.698608	689.883789	1265.120972	461.256317	600.421509	1214.984863	262.833099	655.047302	1180.060547	73.635170	585.729980	1130.112549	61.185791	539.827454	1300.130127	42.630135	548.492798	1160.819702	712.660217	265.113068	1191.636353	508.128693	279.828491	1079.629150	334.210175	235.103302	1076.098633	114.054520	260.911774	1038.063721	105.818161	313.003754	1198.342773	62.448215	266.299561
428	4.27000000	1270.540283	1404.397827	678.172485	1143.297119	1386.613159	355.929871	1172.433960	1447.252319	535.076111	1326.124390	1330.270142	483.299072	1255.279419	1154.028809	836.147705	1105.672729	1094.748169	255.797714	1392.859497	988.470184	903.652191	1288.441711	990.757599	310.794998	1314.804443	905.994812	611.795227	1202.685303	933.562439	378.401093	1125.244507	943.056091	613.014404	1086.517090	942.022949	538.527832	1105.880798	942.539520	575.771118	1125.521240	1171.086060	568.997375	1358.372559	1177.379639	455.667419	1284.302979	634.372620	689.958740	1266.880737	460.964813	600.565796	1216.072632	262.621918	655.037170	1180.141602	73.602257	585.689392	1130.106201	61.307621	539.805786	1300.131226	42.627316	548.458252	1164.394653	713.490173	264.804077	1198.736572	509.434021	278.002380	1089.290405	334.353607	231.848251	1089.715820	113.994766	255.415649	1052.076904	104.356743	307.720398	1212.927246	64.635086	258.781952
429	4.28000000	1272.466431	1404.127686	678.721558	1144.758911	1386.306519	356.542145	1174.208130	1447.081909	535.598022	1327.552002	1329.766357	483.791840	1259.404297	1154.390259	837.868469	1107.024658	1094.588135	256.097748	1399.324036	990.703400	905.176147	1290.073547	990.661224	310.417572	1316.654419	905.802124	612.530151	1204.695679	933.748779	379.303070	1127.572144	941.922180	613.808838	1088.419067	940.992493	539.491516	1107.995605	941.457336	576.650177	1127.315918	1170.810669	569.829407	1359.518921	1176.904541	456.366333	1286.788208	634.027161	689.938354	1268.724731	460.647369	600.634399	1217.236694	262.388641	654.967834	1180.233521	73.571091	585.627014	1130.034058	61.449879	539.777405	1300.140869	42.634502	548.390808	1168.145874	714.327942	264.408447	1206.194702	510.820831	276.091309	1099.496582	334.503723	228.523499	1104.113159	114.000137	249.864319	1066.861938	102.960060	302.344086	1228.291748	67.065666	251.362823
430	4.29000000	1274.273071	1403.790283	679.247375	1146.105469	1385.948120	357.141113	1175.868774	1446.854004	536.105713	1328.871948	1329.219238	484.256012	1263.577881	1154.699707	839.554749	1108.357300	1094.384155	256.292999	1406.005432	992.981323	906.398956	1291.695435	990.531677	309.911835	1318.448853	905.596313	613.208374	1206.644653	933.878052	380.165558	1129.812500	940.750854	614.580811	1090.328369	939.847900	540.394348	1110.070435	940.299377	577.487579	1129.089600	1170.456909	570.571655	1360.575317	1176.396118	457.021301	1289.394653	633.662476	689.835754	1270.630493	460.302338	600.638062	1218.451782	262.134979	654.846924	1180.336060	73.543808	585.546021	1129.881226	61.619175	539.747559	1300.157104	42.651146	548.296082	1172.128052	715.179688	263.924469	1214.013550	512.294800	274.108337	1110.242798	334.688263	225.134415	1119.211060	114.110641	244.306778	1082.318604	101.697952	296.905853	1244.336792	69.733566	244.186356
431	4.30000000	1275.963501	1403.386230	679.750061	1147.340820	1385.538208	357.727692	1177.420288	1446.568359	536.599121	1330.090820	1328.630127	484.692596	1267.796021	1154.956177	841.196411	1109.661133	1094.132202	256.398346	1412.876770	995.296204	907.311646	1293.298218	990.364532	309.285553	1320.194702	905.382568	613.839661	1208.550049	933.947388	380.982391	1131.943359	939.560547	615.326416	1092.253418	938.595276	541.221375	1112.098389	939.077911	578.273895	1130.806641	1170.027466	571.229919	1361.554443	1175.856445	457.634033	1292.097656	633.280945	689.669128	1272.572998	459.929138	600.589966	1219.690308	261.864563	654.684326	1180.447510	73.521393	585.449402	1129.640015	61.819004	539.719666	1300.177124	42.675812	548.181641	1176.376587	716.047974	263.355103	1222.183350	513.859619	272.072632	1121.515015	334.933411	221.687653	1134.925415	114.362556	238.787933	1098.347168	100.628510	291.437378	1260.966064	72.631989	237.370972
432	4.31000000	1277.543701	1402.919678	680.229492	1148.472900	1385.079102	358.300201	1178.869141	1446.226807	537.076660	1331.216675	1328.001709	485.103271	1272.052490	1155.158691	842.780212	1110.926514	1093.832153	256.428680	1419.907471	997.639587	907.905457	1294.872375	990.157440	308.547775	1321.897339	905.164734	614.436584	1210.431763	933.954895	381.746063	1133.947876	938.365540	616.037476	1094.191406	937.247681	541.959595	1114.069641	937.806610	578.998535	1132.420532	1169.532471	571.814453	1362.469238	1175.288208	458.208466	1294.863525	632.887512	689.460083	1274.526611	459.529083	600.505371	1220.924072	261.582764	654.492310	1180.564453	73.503525	585.339844	1129.315063	62.047176	539.694153	1300.198242	42.706348	548.055908	1180.906006	716.931580	262.707642	1230.684082	515.517273	270.007812	1133.288330	335.263275	218.194534	1151.168945	114.787437	233.350555	1114.853516	99.797127	285.974731	1278.086060	75.755760	231.003708
433	4.32000000	1279.022705	1402.397949	680.685730	1149.512329	1384.574219	358.854675	1180.223511	1445.833740	537.535522	1332.259033	1327.338745	485.490234	1276.339844	1155.306885	844.290833	1112.144775	1093.486938	256.398102	1427.063660	1000.002686	908.172211	1296.408813	989.909668	307.708786	1323.561523	904.945801	615.013672	1212.312012	933.900146	382.449036	1135.816406	937.176331	616.702271	1096.129150	935.824524	542.598022	1115.972778	936.500427	579.650146	1133.883545	1168.987793	572.337952	1363.332275	1174.694580	458.750031	1297.652466	632.489624	689.231689	1276.466187	459.105957	600.401489	1222.125977	261.296356	654.284363	1180.682495	73.488861	585.220154	1128.926147	62.293659	539.667175	1300.218140	42.740211	547.927490	1185.711792	717.825562	261.992920	1239.486694	517.267944	267.940491	1145.524658	335.699127	214.674133	1167.853149	115.411407	228.037369	1131.751709	99.236595	280.561157	1295.606201	79.102112	225.138565
434	4.33000000	1280.411133	1401.831665	681.118347	1150.472046	1384.028564	359.385498	1181.492798	1445.395996	537.972839	1333.228271	1326.647949	485.855865	1280.648804	1155.401489	845.712158	1113.309204	1093.102905	256.320221	1434.309448	1002.376831	908.104462	1297.898865	989.622192	306.779953	1325.193115	904.729614	615.586731	1214.215088	933.783508	383.085052	1137.545288	936.001099	617.306641	1098.048096	934.349548	543.127319	1117.796692	935.175323	580.216980	1135.156738	1168.413330	572.813171	1364.155518	1174.080688	459.264923	1300.420898	632.096436	689.006531	1278.367798	458.666077	600.296204	1223.271606	261.012695	654.074707	1180.796997	73.475548	585.092957	1128.510986	62.539772	539.630371	1300.235840	42.774906	547.804504	1190.773315	718.722046	261.224152	1248.554810	519.110352	265.898499	1158.171509	336.258545	211.155441	1184.889648	116.254753	222.892700	1148.964722	98.967697	275.248108	1313.437622	82.670151	219.798431
435	4.34000000	1281.719971	1401.233398	681.526672	1151.366089	1383.448730	359.886414	1182.686768	1444.922363	538.385864	1334.135376	1325.937866	486.202454	1284.969238	1155.444580	847.028198	1114.415283	1092.688232	256.208252	1441.607544	1004.753571	907.695465	1299.334412	989.297363	305.773483	1326.800415	904.522278	616.171570	1216.166260	933.606262	383.650574	1139.137085	934.846558	617.834717	1099.930786	932.848083	543.538696	1119.533936	933.847321	580.686707	1136.218750	1167.829102	573.251160	1364.949463	1173.453125	459.759216	1303.124390	631.717346	688.805054	1280.208862	458.217957	600.207214	1224.339966	260.738831	653.876465	1180.903076	73.461708	584.961121	1128.121460	62.759689	539.571472	1300.251099	42.808460	547.693970	1196.058105	719.611084	260.415802	1257.847046	521.042053	263.909363	1171.162231	336.954437	207.678055	1202.191528	117.331642	217.963242	1166.423828	98.999863	270.094757	1331.492065	86.458908	214.980270
436	4.35000000	1282.960449	1400.617310	681.909790	1152.209106	1382.843384	360.351440	1183.814697	1444.422852	538.772766	1334.991211	1325.219116	486.531982	1289.289795	1155.439453	848.224609	1115.460815	1092.251709	256.075226	1448.919861	1007.124573	906.939575	1300.708496	988.938629	304.702209	1328.396362	904.332764	616.783264	1218.190918	933.369873	384.145630	1140.601074	933.719055	618.270264	1101.767334	931.343567	543.822937	1121.184204	932.531311	581.046600	1137.069702	1167.252563	573.659790	1365.723633	1172.820312	460.238312	1305.720703	631.360779	688.643677	1281.968750	457.771332	600.150513	1225.313965	260.480530	653.700745	1180.996216	73.445915	584.827209	1127.816528	62.924801	539.476929	1300.264404	42.839825	547.601257	1201.527344	720.481873	259.582458	1267.318237	523.058716	261.998993	1184.418091	337.793671	204.290924	1219.673828	118.649849	213.297821	1184.065308	99.331825	265.165588	1349.681274	90.464622	210.662186
